<?xml version="1.0" encoding="UTF-8"?>
<svg id="Layer_2" data-name="Layer 2" xmlns="http://www.w3.org/2000/svg" viewBox="0 0 1477.86 664.4">
  <defs>
    <style>
      .cls-1 {
        fill: #f5e3cc;
      }
    </style>
  </defs>
  <g id="Layer_1-2" data-name="Layer 1">
    <g>
      <path class="cls-1" d="M144.59,590.41c10.12,11.43,20.25,33.97,30.38,67.62l1.96,6.37h-10.29l-.98-3.43c-7.19-23.19-13.8-40.34-19.85-51.45-5.23-9.31-12.25-17.15-21.07-23.52H62.51v78.4h-9.8v-83.3l.25-78.15v-4.9h4.9l68.11-.24c12.09,0,22.79,3.51,32.09,10.53,11.43,8.99,17.15,20.26,17.15,33.81,0,7.03-1.8,13.72-5.39,20.09-6.86,11.6-17.32,19.03-31.36,22.29,2.12,1.8,4.17,3.76,6.12,5.88Zm-18.38-14.21c8.82,0,16.82-2.37,24.01-7.1,10.13-6.86,15.19-15.84,15.19-26.95,0-7.51-2.62-14.37-7.84-20.58-7.84-9.31-18.38-13.96-31.61-13.96H62.51v68.85h29.4l.25-.25h34.05Z"/>
      <path class="cls-1" d="M332.01,497.8v9.8h-107.8v68.6h78.89v9.8h-78.89v68.6h107.8v9.8h-117.6v-166.6h117.6Z"/>
      <path class="cls-1" d="M371.21,581.1l.25-78.15v-4.9h4.9l68.36-.24c12.08,0,22.7,3.59,31.85,10.78,11.43,8.82,17.15,20.01,17.15,33.56,0,10.29-3.67,19.52-11.03,27.69-9.8,10.78-22.46,16.17-37.97,16.17h-63.7v78.4h-9.8v-83.3Zm73.5-4.9c8.82,0,16.82-2.37,24.01-7.1,10.13-6.86,15.19-15.84,15.19-26.95,0-7.68-2.62-14.62-7.84-20.82-7.84-9.15-18.29-13.72-31.36-13.72h-63.7v68.85l63.7-.25Z"/>
      <path class="cls-1" d="M540.51,521.32c14.37-15.68,31.44-23.52,51.21-23.52s36.83,7.84,51.21,23.52c14.86,16.33,22.29,36.26,22.29,59.78s-7.43,43.45-22.29,59.78c-14.38,15.68-31.44,23.52-51.21,23.52-19.76-.16-36.83-8-51.21-23.52-14.86-16.33-22.29-36.26-22.29-59.78s7.43-43.45,22.29-59.78Zm5.88,111.23c12.58,14.7,27.68,22.05,45.33,22.05s31.36-6.7,43.61-20.09c13.39-14.54,20.09-32.34,20.09-53.41,0-19.93-6.12-37.07-18.38-51.45-12.58-14.7-27.69-22.05-45.33-22.05-16.66,.16-31.2,6.86-43.61,20.09-13.39,14.54-20.09,32.34-20.09,53.41,0,19.93,6.12,37.08,18.38,51.45Z"/>
      <path class="cls-1" d="M792.61,541.9c0-7.51-2.94-14.37-8.82-20.58-8.98-9.15-20.74-13.72-35.28-13.72-10.13,0-19.35,2.54-27.68,7.6-10.94,6.86-16.42,15.76-16.42,26.71,0,3.27,.98,6.37,2.94,9.31,4.41,6.54,15.92,13.4,34.54,20.58,20.74,8.17,33.16,13.23,37.24,15.19,18.78,9.31,28.18,20.42,28.18,33.32-.17,9.96-4.58,19.11-13.23,27.44-11.92,11.11-27.11,16.66-45.57,16.66-15.68,0-29.24-4.08-40.67-12.25-12.09-8.82-18.13-19.44-18.13-31.85h9.8c.16,7.68,3.51,14.62,10.04,20.82,9.96,8.98,22.95,13.47,38.96,13.47,11.6,0,22.05-2.7,31.36-8.08,11.76-7.02,17.64-15.76,17.64-26.21,0-3.43-1.06-6.7-3.18-9.8-4.41-6.53-15.92-13.47-34.54-20.82-20.75-8-33.08-12.99-37-14.95-18.78-9.15-28.17-20.09-28.17-32.83,0-10.12,3.84-19.19,11.51-27.2,10.78-11.27,24.91-16.9,42.38-16.9,13.88,0,25.97,3.84,36.26,11.51,11.76,8.66,17.64,19.52,17.64,32.59h-9.8Z"/>
      <path class="cls-1" d="M843.08,497.8h9.8v166.6h-9.8v-166.6Z"/>
      <path class="cls-1" d="M1003.3,497.8h4.9v9.8h-58.55v156.8h-9.8v-156.8h-59.04v-9.8h122.5Z"/>
      <path class="cls-1" d="M1050.1,521.32c14.37-15.68,31.44-23.52,51.21-23.52s36.83,7.84,51.21,23.52c14.86,16.33,22.29,36.26,22.29,59.78s-7.43,43.45-22.29,59.78c-14.38,15.68-31.44,23.52-51.21,23.52-19.76-.16-36.83-8-51.21-23.52-14.86-16.33-22.29-36.26-22.29-59.78s7.43-43.45,22.29-59.78Zm5.88,111.23c12.58,14.7,27.68,22.05,45.33,22.05s31.36-6.7,43.61-20.09c13.39-14.54,20.09-32.34,20.09-53.41,0-19.93-6.12-37.07-18.38-51.45-12.58-14.7-27.69-22.05-45.33-22.05-16.66,.16-31.2,6.86-43.61,20.09-13.39,14.54-20.09,32.34-20.09,53.41,0,19.93,6.12,37.08,18.38,51.45Z"/>
      <path class="cls-1" d="M1305.88,590.41c10.12,11.43,20.25,33.97,30.38,67.62l1.96,6.37h-10.29l-.98-3.43c-7.19-23.19-13.8-40.34-19.85-51.45-5.23-9.31-12.25-17.15-21.07-23.52h-62.23v78.4h-9.8v-83.3l.25-78.15v-4.9h4.9l68.11-.24c12.09,0,22.79,3.51,32.09,10.53,11.43,8.99,17.15,20.26,17.15,33.81,0,7.03-1.8,13.72-5.39,20.09-6.86,11.6-17.32,19.03-31.36,22.29,2.12,1.8,4.17,3.76,6.12,5.88Zm-18.38-14.21c8.82,0,16.82-2.37,24.01-7.1,10.13-6.86,15.19-15.84,15.19-26.95,0-7.51-2.62-14.37-7.84-20.58-7.84-9.31-18.38-13.96-31.61-13.96h-63.46v68.85h29.4l.25-.25h34.05Z"/>
      <path class="cls-1" d="M1422.74,659.5v4.9h-9.8v-81.83l-51.21-77.18-4.9-7.59h11.76l1.47,2.21,47.77,72.27,46.79-72.27,1.47-2.21h11.76l-4.9,7.59-50.22,77.18v76.93Z"/>
    </g>
    <g>
      <path class="cls-1" d="M159.61,158.55h157.5v21.14c0,51.09-16.38,94.43-49.15,130.02-30.65,33.12-66.95,49.68-108.88,49.68-42.28-.35-79.1-17.09-110.46-50.21C16.2,273.95,0,230.79,0,179.7,.35,128.96,16.73,85.62,49.15,49.68,80.15,16.56,116.8,0,159.08,0c23.96,0,47.57,5.81,70.82,17.44,29.94,15.15,51.27,35.24,63.95,60.25l-38.05,19.03c-4.58-8.46-11.1-16.73-19.56-24.84-22.55-20.08-48.28-29.94-77.16-29.6-29.95,.35-56.02,12.15-78.22,35.41-25.72,27.14-38.58,61.13-38.58,102,0,35.24,10.04,66.06,30.13,92.49,23.25,29.95,52.14,44.92,86.68,44.92,31.36-.35,59.01-13.39,82.98-39.11,21.84-23.96,32.77-49.68,32.77-77.16h-115.22v-42.28Z"/>
      <path class="cls-1" d="M394.27,359.39h-45.98l12.68-29.6L498.38,12.68l5.81-12.68h27.48l5.81,12.68,137.42,317.11,12.68,29.6h-45.98l-5.81-12.68-117.86-272.19-117.86,272.19-5.81,12.68Z"/>
      <path class="cls-1" d="M732.52,0h42.28V359.39h-42.28V0Z"/>
      <path class="cls-1" d="M909.04,359.39h-42.28V0h32.24l6.34,8.98,182.87,262.14,.53-249.99V0h42.28V21.14l-.53,317.11v21.14h-32.24l-6.34-8.98L909.04,88.26V359.39Z"/>
      <path class="cls-1" d="M1203.42,42.28V0h253.16l-20.61,32.77-181.81,284.34h193.97v42.28h-271.13l20.61-32.77L1379.42,42.28h-176Z"/>
    </g>
  </g>
</svg>